<mxfile host="Electron" agent="Mozilla/5.0 (Windows NT 10.0; Win64; x64) AppleWebKit/537.36 (KHTML, like Gecko) draw.io/27.0.9 Chrome/134.0.6998.205 Electron/35.4.0 Safari/537.36" version="27.0.9">
  <diagram name="Page-1" id="SJTKgVkfI5fgC8WmvBLQ">
    <mxGraphModel dx="1155" dy="733" grid="1" gridSize="10" guides="1" tooltips="1" connect="1" arrows="1" fold="1" page="1" pageScale="1" pageWidth="850" pageHeight="1100" math="0" shadow="0">
      <root>
        <mxCell id="0" />
        <mxCell id="1" parent="0" />
        <mxCell id="f60WOT8iEacll-uPLcOV-55" value="" style="ellipse;shape=cloud;whiteSpace=wrap;html=1;strokeColor=none;fillColor=#F19C99;fontColor=#ffffff;" vertex="1" parent="1">
          <mxGeometry x="540" y="155" width="60" height="120" as="geometry" />
        </mxCell>
        <mxCell id="f60WOT8iEacll-uPLcOV-1" value="" style="rounded=0;whiteSpace=wrap;html=1;" vertex="1" parent="1">
          <mxGeometry x="600" y="40" width="80" height="40" as="geometry" />
        </mxCell>
        <mxCell id="f60WOT8iEacll-uPLcOV-2" value="" style="rounded=0;whiteSpace=wrap;html=1;" vertex="1" parent="1">
          <mxGeometry x="600" y="80" width="80" height="40" as="geometry" />
        </mxCell>
        <mxCell id="f60WOT8iEacll-uPLcOV-3" value="" style="rounded=0;whiteSpace=wrap;html=1;" vertex="1" parent="1">
          <mxGeometry x="600" y="120" width="80" height="40" as="geometry" />
        </mxCell>
        <mxCell id="f60WOT8iEacll-uPLcOV-4" value="" style="rounded=0;whiteSpace=wrap;html=1;" vertex="1" parent="1">
          <mxGeometry x="600" y="160" width="80" height="40" as="geometry" />
        </mxCell>
        <mxCell id="f60WOT8iEacll-uPLcOV-5" value="" style="rounded=0;whiteSpace=wrap;html=1;" vertex="1" parent="1">
          <mxGeometry x="600" y="200" width="80" height="40" as="geometry" />
        </mxCell>
        <mxCell id="f60WOT8iEacll-uPLcOV-6" value="" style="rounded=0;whiteSpace=wrap;html=1;" vertex="1" parent="1">
          <mxGeometry x="600" y="240" width="80" height="120" as="geometry" />
        </mxCell>
        <mxCell id="f60WOT8iEacll-uPLcOV-7" value="" style="rounded=0;whiteSpace=wrap;html=1;" vertex="1" parent="1">
          <mxGeometry x="600" y="360" width="80" height="40" as="geometry" />
        </mxCell>
        <mxCell id="f60WOT8iEacll-uPLcOV-8" value="" style="rounded=0;whiteSpace=wrap;html=1;" vertex="1" parent="1">
          <mxGeometry x="600" y="400" width="80" height="40" as="geometry" />
        </mxCell>
        <mxCell id="f60WOT8iEacll-uPLcOV-9" value="" style="ellipse;whiteSpace=wrap;html=1;" vertex="1" parent="1">
          <mxGeometry x="55" y="90" width="130" height="320" as="geometry" />
        </mxCell>
        <mxCell id="f60WOT8iEacll-uPLcOV-11" value="" style="shape=step;perimeter=stepPerimeter;whiteSpace=wrap;html=1;fixedSize=1;" vertex="1" parent="1">
          <mxGeometry x="360" y="80" width="50" height="320" as="geometry" />
        </mxCell>
        <mxCell id="f60WOT8iEacll-uPLcOV-16" value="" style="ellipse;whiteSpace=wrap;html=1;aspect=fixed;" vertex="1" parent="1">
          <mxGeometry x="NaN" y="NaN" width="NaN" height="10" as="geometry" />
        </mxCell>
        <mxCell id="f60WOT8iEacll-uPLcOV-17" value="" style="ellipse;whiteSpace=wrap;html=1;" vertex="1" parent="1">
          <mxGeometry x="110" y="140" width="20" height="20" as="geometry" />
        </mxCell>
        <mxCell id="f60WOT8iEacll-uPLcOV-19" value="" style="html=1;whiteSpace=wrap;shape=isoCube2;backgroundOutline=1;isoAngle=15;" vertex="1" parent="1">
          <mxGeometry x="80" y="200" width="20" height="20" as="geometry" />
        </mxCell>
        <mxCell id="f60WOT8iEacll-uPLcOV-20" value="" style="shape=switch;whiteSpace=wrap;html=1;" vertex="1" parent="1">
          <mxGeometry x="120" y="250" width="20" height="20" as="geometry" />
        </mxCell>
        <mxCell id="f60WOT8iEacll-uPLcOV-21" value="" style="triangle;whiteSpace=wrap;html=1;rotation=-90;" vertex="1" parent="1">
          <mxGeometry x="90" y="330" width="20" height="20" as="geometry" />
        </mxCell>
        <mxCell id="f60WOT8iEacll-uPLcOV-24" value="" style="endArrow=none;html=1;rounded=0;exitX=1;exitY=0.5;exitDx=0;exitDy=0;entryX=0.4;entryY=0.219;entryDx=0;entryDy=0;entryPerimeter=0;" edge="1" parent="1" source="f60WOT8iEacll-uPLcOV-17" target="f60WOT8iEacll-uPLcOV-11">
          <mxGeometry width="50" height="50" relative="1" as="geometry">
            <mxPoint x="400" y="270" as="sourcePoint" />
            <mxPoint x="450" y="220" as="targetPoint" />
          </mxGeometry>
        </mxCell>
        <mxCell id="f60WOT8iEacll-uPLcOV-25" value="" style="endArrow=classic;html=1;rounded=0;entryX=0;entryY=0.25;entryDx=0;entryDy=0;" edge="1" parent="1" target="f60WOT8iEacll-uPLcOV-5">
          <mxGeometry width="50" height="50" relative="1" as="geometry">
            <mxPoint x="380" y="150" as="sourcePoint" />
            <mxPoint x="450" y="220" as="targetPoint" />
          </mxGeometry>
        </mxCell>
        <mxCell id="f60WOT8iEacll-uPLcOV-26" value="" style="endArrow=none;html=1;rounded=0;exitX=1;exitY=0.5;exitDx=0;exitDy=0;exitPerimeter=0;" edge="1" parent="1" source="f60WOT8iEacll-uPLcOV-19">
          <mxGeometry width="50" height="50" relative="1" as="geometry">
            <mxPoint x="400" y="270" as="sourcePoint" />
            <mxPoint x="391" y="209" as="targetPoint" />
          </mxGeometry>
        </mxCell>
        <mxCell id="f60WOT8iEacll-uPLcOV-31" value="" style="endArrow=classic;html=1;rounded=0;entryX=0;entryY=0.5;entryDx=0;entryDy=0;" edge="1" parent="1" target="f60WOT8iEacll-uPLcOV-2">
          <mxGeometry width="50" height="50" relative="1" as="geometry">
            <mxPoint x="390" y="210" as="sourcePoint" />
            <mxPoint x="450" y="220" as="targetPoint" />
          </mxGeometry>
        </mxCell>
        <mxCell id="f60WOT8iEacll-uPLcOV-32" value="" style="endArrow=none;html=1;rounded=0;exitX=0.75;exitY=0.5;exitDx=0;exitDy=0;exitPerimeter=0;" edge="1" parent="1" source="f60WOT8iEacll-uPLcOV-20">
          <mxGeometry width="50" height="50" relative="1" as="geometry">
            <mxPoint x="400" y="270" as="sourcePoint" />
            <mxPoint x="400" y="260" as="targetPoint" />
          </mxGeometry>
        </mxCell>
        <mxCell id="f60WOT8iEacll-uPLcOV-33" value="" style="endArrow=classic;html=1;rounded=0;entryX=0;entryY=0.5;entryDx=0;entryDy=0;" edge="1" parent="1" target="f60WOT8iEacll-uPLcOV-7">
          <mxGeometry width="50" height="50" relative="1" as="geometry">
            <mxPoint x="400" y="260" as="sourcePoint" />
            <mxPoint x="450" y="220" as="targetPoint" />
          </mxGeometry>
        </mxCell>
        <mxCell id="f60WOT8iEacll-uPLcOV-34" value="" style="endArrow=none;html=1;rounded=0;exitX=0.5;exitY=1;exitDx=0;exitDy=0;" edge="1" parent="1" source="f60WOT8iEacll-uPLcOV-21">
          <mxGeometry width="50" height="50" relative="1" as="geometry">
            <mxPoint x="400" y="270" as="sourcePoint" />
            <mxPoint x="380" y="340" as="targetPoint" />
          </mxGeometry>
        </mxCell>
        <mxCell id="f60WOT8iEacll-uPLcOV-35" value="" style="endArrow=classic;html=1;rounded=0;entryX=0;entryY=0.5;entryDx=0;entryDy=0;" edge="1" parent="1" target="f60WOT8iEacll-uPLcOV-5">
          <mxGeometry width="50" height="50" relative="1" as="geometry">
            <mxPoint x="380" y="340" as="sourcePoint" />
            <mxPoint x="450" y="220" as="targetPoint" />
          </mxGeometry>
        </mxCell>
        <mxCell id="f60WOT8iEacll-uPLcOV-37" value="0" style="text;html=1;align=center;verticalAlign=middle;whiteSpace=wrap;rounded=0;fontSize=16;" vertex="1" parent="1">
          <mxGeometry x="680" y="45" width="30" height="30" as="geometry" />
        </mxCell>
        <mxCell id="f60WOT8iEacll-uPLcOV-38" value="1" style="text;html=1;align=center;verticalAlign=middle;whiteSpace=wrap;rounded=0;fontSize=16;" vertex="1" parent="1">
          <mxGeometry x="680" y="85" width="30" height="30" as="geometry" />
        </mxCell>
        <mxCell id="f60WOT8iEacll-uPLcOV-39" value="2" style="text;html=1;align=center;verticalAlign=middle;whiteSpace=wrap;rounded=0;fontSize=16;" vertex="1" parent="1">
          <mxGeometry x="680" y="125" width="30" height="30" as="geometry" />
        </mxCell>
        <mxCell id="f60WOT8iEacll-uPLcOV-40" value="m-1" style="text;html=1;align=center;verticalAlign=middle;whiteSpace=wrap;rounded=0;fontSize=16;" vertex="1" parent="1">
          <mxGeometry x="690" y="405" width="30" height="30" as="geometry" />
        </mxCell>
        <mxCell id="f60WOT8iEacll-uPLcOV-41" value="Tabela T" style="text;html=1;align=center;verticalAlign=middle;whiteSpace=wrap;rounded=0;fontSize=16;" vertex="1" parent="1">
          <mxGeometry x="600" y="450" width="80" height="30" as="geometry" />
        </mxCell>
        <mxCell id="f60WOT8iEacll-uPLcOV-42" value="&lt;div style=&quot;text-align: left;&quot;&gt;&lt;span style=&quot;background-color: transparent; color: light-dark(rgb(0, 0, 0), rgb(255, 255, 255));&quot;&gt;Função de dispersão&lt;/span&gt;&lt;/div&gt;&lt;div style=&quot;text-align: left;&quot;&gt;&lt;span style=&quot;background-color: transparent; color: light-dark(rgb(0, 0, 0), rgb(255, 255, 255));&quot;&gt;h:&amp;nbsp; K&amp;nbsp; &amp;nbsp; &amp;nbsp; &amp;nbsp; &amp;nbsp;{0..m-1}&lt;/span&gt;&lt;/div&gt;&lt;div style=&quot;text-align: left;&quot;&gt;&lt;span style=&quot;background-color: transparent; color: light-dark(rgb(0, 0, 0), rgb(255, 255, 255));&quot;&gt;&amp;nbsp; &amp;nbsp; &amp;nbsp;k&amp;nbsp; &amp;nbsp; &amp;nbsp; &amp;nbsp; &amp;nbsp; h(k)&lt;/span&gt;&lt;/div&gt;&lt;div style=&quot;text-align: left;&quot;&gt;&lt;br&gt;&lt;/div&gt;" style="text;html=1;align=center;verticalAlign=middle;whiteSpace=wrap;rounded=0;fontSize=16;" vertex="1" parent="1">
          <mxGeometry x="292.5" y="450" width="185" height="30" as="geometry" />
        </mxCell>
        <mxCell id="f60WOT8iEacll-uPLcOV-43" value="Coleção de Chaves&lt;div&gt;K (subconjunto de U)&lt;/div&gt;" style="text;html=1;align=center;verticalAlign=middle;whiteSpace=wrap;rounded=0;fontSize=16;" vertex="1" parent="1">
          <mxGeometry x="35" y="450" width="150" height="30" as="geometry" />
        </mxCell>
        <mxCell id="f60WOT8iEacll-uPLcOV-44" value="Colisão!" style="text;html=1;align=center;verticalAlign=middle;whiteSpace=wrap;rounded=0;fontSize=16;" vertex="1" parent="1">
          <mxGeometry x="510" y="205" width="60" height="30" as="geometry" />
        </mxCell>
        <mxCell id="f60WOT8iEacll-uPLcOV-45" value="" style="ellipse;whiteSpace=wrap;html=1;" vertex="1" parent="1">
          <mxGeometry x="630" y="210" width="20" height="20" as="geometry" />
        </mxCell>
        <mxCell id="f60WOT8iEacll-uPLcOV-46" value="" style="html=1;whiteSpace=wrap;shape=isoCube2;backgroundOutline=1;isoAngle=15;" vertex="1" parent="1">
          <mxGeometry x="630" y="90" width="20" height="20" as="geometry" />
        </mxCell>
        <mxCell id="f60WOT8iEacll-uPLcOV-47" value="" style="shape=switch;whiteSpace=wrap;html=1;" vertex="1" parent="1">
          <mxGeometry x="630" y="370" width="20" height="20" as="geometry" />
        </mxCell>
        <mxCell id="f60WOT8iEacll-uPLcOV-48" value="" style="triangle;whiteSpace=wrap;html=1;rotation=-90;" vertex="1" parent="1">
          <mxGeometry x="570" y="230" width="20" height="20" as="geometry" />
        </mxCell>
        <mxCell id="f60WOT8iEacll-uPLcOV-52" value="" style="endArrow=classic;html=1;rounded=0;fontSize=16;" edge="1" parent="1">
          <mxGeometry width="50" height="50" relative="1" as="geometry">
            <mxPoint x="359" y="458" as="sourcePoint" />
            <mxPoint x="379" y="458" as="targetPoint" />
          </mxGeometry>
        </mxCell>
        <mxCell id="f60WOT8iEacll-uPLcOV-53" value="" style="endArrow=classic;html=1;rounded=0;startArrow=baseDash;startFill=0;fontSize=16;" edge="1" parent="1">
          <mxGeometry width="50" height="50" relative="1" as="geometry">
            <mxPoint x="359" y="472" as="sourcePoint" />
            <mxPoint x="379" y="472" as="targetPoint" />
          </mxGeometry>
        </mxCell>
      </root>
    </mxGraphModel>
  </diagram>
</mxfile>
